<svg width="24" height="25" viewBox="0 0 24 25" fill="none" xmlns="http://www.w3.org/2000/svg">
<path d="M0 2.68357C0 1.97184 0.280951 1.28927 0.781048 0.786C1.28115 0.282732 1.95942 0 2.66667 0H8C8.70724 0 9.38552 0.282732 9.88562 0.786C10.3857 1.28927 10.6667 1.97184 10.6667 2.68357V8.05071C10.6667 8.76244 10.3857 9.44502 9.88562 9.94828C9.38552 10.4516 8.70724 10.7343 8 10.7343H2.66667C1.95942 10.7343 1.28115 10.4516 0.781048 9.94828C0.280951 9.44502 0 8.76244 0 8.05071V2.68357ZM8 2.68357H2.66667V8.05071H8V2.68357ZM13.3333 2.68357C13.3333 1.97184 13.6143 1.28927 14.1144 0.786C14.6145 0.282732 15.2928 0 16 0H21.3333C22.0406 0 22.7189 0.282732 23.219 0.786C23.719 1.28927 24 1.97184 24 2.68357V8.05071C24 8.76244 23.719 9.44502 23.219 9.94828C22.7189 10.4516 22.0406 10.7343 21.3333 10.7343H16C15.2928 10.7343 14.6145 10.4516 14.1144 9.94828C13.6143 9.44502 13.3333 8.76244 13.3333 8.05071V2.68357ZM21.3333 2.68357H16V8.05071H21.3333V2.68357ZM0 16.1014C0 15.3897 0.280951 14.7071 0.781048 14.2039C1.28115 13.7006 1.95942 13.4179 2.66667 13.4179H8C8.70724 13.4179 9.38552 13.7006 9.88562 14.2039C10.3857 14.7071 10.6667 15.3897 10.6667 16.1014V21.4686C10.6667 22.1803 10.3857 22.8629 9.88562 23.3661C9.38552 23.8694 8.70724 24.1521 8 24.1521H2.66667C1.95942 24.1521 1.28115 23.8694 0.781048 23.3661C0.280951 22.8629 0 22.1803 0 21.4686V16.1014ZM8 16.1014H2.66667V21.4686H8V16.1014ZM13.3333 16.1014C13.3333 15.3897 13.6143 14.7071 14.1144 14.2039C14.6145 13.7006 15.2928 13.4179 16 13.4179H21.3333C22.0406 13.4179 22.7189 13.7006 23.219 14.2039C23.719 14.7071 24 15.3897 24 16.1014V21.4686C24 22.1803 23.719 22.8629 23.219 23.3661C22.7189 23.8694 22.0406 24.1521 21.3333 24.1521H16C15.2928 24.1521 14.6145 23.8694 14.1144 23.3661C13.6143 22.8629 13.3333 22.1803 13.3333 21.4686V16.1014ZM21.3333 16.1014H16V21.4686H21.3333V16.1014Z" fill="#3CD3E4"/>
</svg>
