<svg width="25" height="25" viewBox="0 0 25 25" fill="none" xmlns="http://www.w3.org/2000/svg">
<mask id="mask0_124_177" style="mask-type:alpha" maskUnits="userSpaceOnUse" x="0" y="0" width="25" height="25">
<rect width="25" height="25" fill="#D9D9D9"/>
</mask>
<g mask="url(#mask0_124_177)">
<path d="M6.25004 14.5834H14.5834V12.5H6.25004V14.5834ZM6.25004 11.4584H18.75V9.37504H6.25004V11.4584ZM6.25004 8.33337H18.75V6.25004H6.25004V8.33337ZM2.08337 22.9167V4.16671C2.08337 3.59379 2.28737 3.10334 2.69535 2.69535C3.10334 2.28737 3.59379 2.08337 4.16671 2.08337H20.8334C21.4063 2.08337 21.8967 2.28737 22.3047 2.69535C22.7127 3.10334 22.9167 3.59379 22.9167 4.16671V16.6667C22.9167 17.2396 22.7127 17.7301 22.3047 18.1381C21.8967 18.546 21.4063 18.75 20.8334 18.75H6.25004L2.08337 22.9167ZM5.36462 16.6667H20.8334V4.16671H4.16671V17.8386L5.36462 16.6667Z" fill="#3CD3E4"/>
</g>
</svg>
