<svg width="27" height="24" viewBox="0 0 27 24" fill="none" xmlns="http://www.w3.org/2000/svg">
<path d="M1.0823 0.0881138C0.73113 0.230953 0.29936 0.691931 0.138166 1.10097L0 1.44508V11.9956V22.5462L0.138166 22.8903C0.218763 23.0916 0.385714 23.3448 0.558422 23.5201C1.04776 24.0136 1.05928 24.0136 3.8629 23.9941C6.29808 23.9746 6.33838 23.9746 6.57441 23.8253C6.90256 23.6305 7.17889 23.3059 7.34584 22.9293C7.46098 22.6566 7.48401 22.4878 7.50128 21.7541L7.52431 20.8971L10.0401 20.8776C11.8478 20.8581 12.5962 20.8322 12.7113 20.7737C12.8552 20.7088 12.9128 20.7218 13.2064 20.8841C15.1119 21.9749 18.7388 22.5267 22.5959 22.3255C24.4094 22.2281 26.5797 21.9878 26.7122 21.8645C26.764 21.819 26.8503 21.6892 26.9021 21.5788C26.9885 21.397 27 20.9945 27 17.1898C27 12.7033 27 12.7228 26.7064 12.2748C26.4186 11.8463 26.2401 11.7814 25.2211 11.7294C24.7087 11.7035 24.2079 11.645 24.0985 11.5996C23.9891 11.5541 23.5977 11.3139 23.235 11.0672C21.9569 10.1907 20.155 9.28821 18.1516 8.52208C16.5454 7.90527 16.0446 7.75594 15.6934 7.7949C15.371 7.83385 14.6456 8.18446 14.3232 8.46364L14.1333 8.62596V7.14563C14.1333 6.33405 14.1045 5.45105 14.0757 5.19134C13.9663 4.26289 13.5979 3.64609 12.9876 3.37989C12.7516 3.27601 12.4465 3.26302 10.1264 3.24355L7.52431 3.22407L7.50128 2.30211C7.48401 1.49702 7.46674 1.3412 7.34584 1.06201C7.17889 0.685438 6.90256 0.360806 6.57441 0.166027C6.33262 0.016695 6.30959 0.016695 3.82836 0.00370979C1.71556 -0.00927544 1.2838 0.0102024 1.0823 0.0881138ZM5.78571 2.54883V3.23056H3.742H1.69829V2.54883V1.8671H3.742H5.78571V2.54883ZM12.6192 4.89268C12.7055 4.9641 12.8322 5.1394 12.8955 5.28224C13.0049 5.52896 13.0107 5.68479 13.0279 10.1387L13.0452 14.7355L12.9128 14.7031C12.838 14.6901 12.4235 14.5667 11.9917 14.4369C10.7885 14.0863 9.99403 13.937 9.03838 13.898C7.72004 13.8396 6.95437 14.0538 6.49382 14.5992C6.17143 14.9823 5.95267 15.8523 6.0678 16.3198C6.30384 17.3196 7.52431 18.2805 9.64286 19.1441L10.1898 19.3648L5.96418 19.3843C3.63838 19.3908 1.72708 19.3908 1.71556 19.3778C1.70405 19.3648 1.70405 18.6376 1.70981 17.7611L1.72708 16.1769L1.91706 16.2289L2.10128 16.2873V16.7678V17.2547H2.6194H3.13753V16.7742V16.2873L3.4887 16.1769C4.67463 15.8003 5.39424 14.4629 5.15245 13.0864C4.9855 12.1255 4.47313 11.5217 3.54051 11.1776L3.16631 11.0412L3.1548 9.94397L3.13753 8.84671L3.31023 9.05447C3.45991 9.24276 3.51748 9.39209 3.62111 9.92449L3.65565 10.0933L4.1565 10.0024C4.43859 9.95695 4.74947 9.89852 4.85885 9.87904L5.05458 9.84658L5.02004 9.50896C4.99701 9.32067 4.88763 8.96358 4.77825 8.70387C4.48465 8.04162 4.03561 7.62609 3.40235 7.4443C3.14328 7.37288 3.13753 7.36638 3.13753 7.11966V6.86645H2.6194H2.10128V7.11966C2.10128 7.32743 2.07825 7.37937 1.97463 7.41183C1.69254 7.49624 1.69829 7.5287 1.69829 6.08733V4.72387L7.07527 4.73686C12.4062 4.75633 12.458 4.75633 12.6192 4.89268ZM2.10128 9.78814C2.10128 10.2881 2.07825 10.6971 2.04947 10.6971C2.02644 10.6971 1.93433 10.6387 1.84797 10.5608C1.70405 10.4309 1.69829 10.4049 1.69829 9.78814C1.69829 9.17134 1.70405 9.14537 1.84797 9.01552C1.93433 8.93761 2.02644 8.87917 2.04947 8.87917C2.07825 8.87917 2.10128 9.28821 2.10128 9.78814ZM1.92281 12.2618L2.10128 12.3333V13.5604C2.10128 14.2356 2.07825 14.7875 2.05522 14.7875C2.02644 14.7875 1.94009 14.7031 1.85373 14.6057L1.69829 14.4239V13.3072C1.69829 12.6904 1.70981 12.1904 1.72132 12.1904C1.72708 12.1904 1.81919 12.2229 1.92281 12.2618ZM3.63838 13.0994C3.86866 13.4825 3.80533 14.1123 3.49446 14.4823C3.13753 14.9109 3.13753 14.9109 3.13753 13.7097V12.6319L3.32175 12.7553C3.42537 12.8267 3.5693 12.976 3.63838 13.0994ZM5.78571 21.5074V22.1242H3.742H1.69829V21.5074V20.8906H3.742H5.78571V21.5074Z" fill="#29B437"/>
</svg>
