<svg width="24" height="25" viewBox="0 0 24 25" fill="none" xmlns="http://www.w3.org/2000/svg">
<path d="M11.2012 0.320686C11.4214 0.114099 11.7056 0 12 0C12.2944 0 12.5786 0.114099 12.7988 0.320686L23.6256 10.4904C23.8519 10.7176 23.9858 11.0288 23.9989 11.3584C24.0121 11.688 23.9035 12.0101 23.6961 12.2566C23.4888 12.5031 23.1988 12.6548 22.8875 12.6797C22.5763 12.7045 22.268 12.6005 22.028 12.3896L21.6238 12.012V21.6097C21.6238 22.284 21.3703 22.9307 20.9191 23.4075C20.4679 23.8843 19.8559 24.1521 19.2179 24.1521H4.78215C4.14405 24.1521 3.53209 23.8843 3.08089 23.4075C2.62968 22.9307 2.3762 22.284 2.3762 21.6097V12.012L1.972 12.3896C1.73196 12.6005 1.42374 12.7045 1.11247 12.6797C0.801201 12.6548 0.511247 12.5031 0.303861 12.2566C0.0964762 12.0101 -0.012099 11.688 0.00107239 11.3584C0.0142438 11.0288 0.14813 10.7176 0.374448 10.4904L11.2012 0.320686ZM4.78215 9.74928V21.6097H8.39107V15.2536C8.39107 14.9165 8.51782 14.5932 8.74342 14.3548C8.96902 14.1164 9.275 13.9824 9.59405 13.9824H14.406C14.725 13.9824 15.031 14.1164 15.2566 14.3548C15.4822 14.5932 15.6089 14.9165 15.6089 15.2536V21.6097H19.2179V9.75055L12 2.97117L4.78215 9.74928ZM13.203 21.6097V16.5249H10.797V21.6097H13.203Z" fill="#3CD3E4"/>
</svg>
