<svg width="32" height="32" viewBox="0 0 32 32" fill="none" xmlns="http://www.w3.org/2000/svg">
<path d="M10.2856 9.71429C10.2856 10.6611 9.51811 11.4286 8.57134 11.4286C7.62458 11.4286 6.85706 10.6611 6.85706 9.71429C6.85706 8.76752 7.62458 8 8.57134 8C9.51811 8 10.2856 8.76752 10.2856 9.71429Z" fill="white"/>
<path d="M8.57134 18.2857C9.51811 18.2857 10.2856 17.5182 10.2856 16.5715C10.2856 15.6247 9.51811 14.8572 8.57134 14.8572C7.62458 14.8572 6.85706 15.6247 6.85706 16.5715C6.85706 17.5182 7.62458 18.2857 8.57134 18.2857Z" fill="white"/>
<path d="M10.2856 23.4286C10.2856 24.3754 9.51811 25.1429 8.57134 25.1429C7.62458 25.1429 6.85706 24.3754 6.85706 23.4286C6.85706 22.4819 7.62458 21.7144 8.57134 21.7144C9.51811 21.7144 10.2856 22.4819 10.2856 23.4286Z" fill="white"/>
<path d="M14.8572 9.14282C14.226 9.14282 13.7144 9.6545 13.7144 10.2857C13.7144 10.9169 14.226 11.4285 14.8572 11.4285H24.0001C24.6312 11.4285 25.1429 10.9169 25.1429 10.2857C25.1429 9.6545 24.6312 9.14282 24.0001 9.14282H14.8572Z" fill="white"/>
<path d="M13.7144 17.1429C13.7144 16.5118 14.226 16 14.8572 16H24.0001C24.6312 16 25.1429 16.5118 25.1429 17.1429C25.1429 17.7739 24.6312 18.2857 24.0001 18.2857H14.8572C14.226 18.2857 13.7144 17.7739 13.7144 17.1429Z" fill="white"/>
<path d="M14.8572 22.8572C14.226 22.8572 13.7144 23.3689 13.7144 24C13.7144 24.6311 14.226 25.1429 14.8572 25.1429H24.0001C24.6312 25.1429 25.1429 24.6311 25.1429 24C25.1429 23.3689 24.6312 22.8572 24.0001 22.8572H14.8572Z" fill="white"/>
<path d="M0 4.57143C0 2.0467 2.0467 0 4.57143 0H27.4286C29.9534 0 32 2.0467 32 4.57143V27.4286C32 29.9534 29.9534 32 27.4286 32H4.57143C2.0467 32 0 29.9534 0 27.4286V4.57143ZM4.57143 2.28571C3.30907 2.28571 2.28571 3.30907 2.28571 4.57143V27.4286C2.28571 28.691 3.30907 29.7143 4.57143 29.7143H27.4286C28.691 29.7143 29.7143 28.691 29.7143 27.4286V4.57143C29.7143 3.30907 28.691 2.28571 27.4286 2.28571H4.57143Z" fill="white"/>
</svg>
