<svg width="16" height="16" viewBox="0 0 16 16" fill="none" xmlns="http://www.w3.org/2000/svg">
<path d="M0 1.7778C0 1.3063 0.168571 0.854107 0.468629 0.520705C0.768687 0.187303 1.17565 0 1.6 0H14.4C14.8243 0 15.2313 0.187303 15.5314 0.520705C15.8314 0.854107 16 1.3063 16 1.7778V11.5557C16 12.0272 15.8314 12.4794 15.5314 12.8128C15.2313 13.1462 14.8243 13.3335 14.4 13.3335H10.7312L8.5656 15.7397C8.41558 15.9064 8.21213 16 8 16C7.78787 16 7.58442 15.9064 7.4344 15.7397L5.2688 13.3335H1.6C1.17565 13.3335 0.768687 13.1462 0.468629 12.8128C0.168571 12.4794 0 12.0272 0 11.5557V1.7778ZM14.4 1.7778H1.6V11.5557H5.6C5.81216 11.5557 6.01561 11.6494 6.1656 11.8161L8 13.8544L9.8344 11.8161C9.98439 11.6494 10.1878 11.5557 10.4 11.5557H14.4V1.7778ZM3.2 4.88895C3.2 4.6532 3.28429 4.4271 3.43431 4.2604C3.58434 4.0937 3.78783 4.00005 4 4.00005H12C12.2122 4.00005 12.4157 4.0937 12.5657 4.2604C12.7157 4.4271 12.8 4.6532 12.8 4.88895C12.8 5.1247 12.7157 5.35079 12.5657 5.51749C12.4157 5.68419 12.2122 5.77785 12 5.77785H4C3.78783 5.77785 3.58434 5.68419 3.43431 5.51749C3.28429 5.35079 3.2 5.1247 3.2 4.88895ZM3.2 8.44454C3.2 8.20879 3.28429 7.9827 3.43431 7.816C3.58434 7.6493 3.78783 7.55565 4 7.55565H8.8C9.01217 7.55565 9.21566 7.6493 9.36569 7.816C9.51571 7.9827 9.6 8.20879 9.6 8.44454C9.6 8.6803 9.51571 8.90639 9.36569 9.07309C9.21566 9.23979 9.01217 9.33344 8.8 9.33344H4C3.78783 9.33344 3.58434 9.23979 3.43431 9.07309C3.28429 8.90639 3.2 8.6803 3.2 8.44454Z" fill="white"/>
</svg>
