<svg width="19" height="21" viewBox="0 0 19 21" fill="none" xmlns="http://www.w3.org/2000/svg">
<path d="M9.5 21C10.0599 21 10.5969 20.7989 10.9928 20.4408C11.3887 20.0828 11.6112 19.5972 11.6112 19.0909H7.38884C7.38884 19.5972 7.61126 20.0828 8.00718 20.4408C8.4031 20.7989 8.94009 21 9.5 21ZM1.05536 17.1818H17.9446C18.1534 17.1818 18.3574 17.1258 18.531 17.0209C18.7045 16.916 18.8398 16.7669 18.9197 16.5925C18.9995 16.4181 19.0204 16.2262 18.9797 16.0411C18.939 15.856 18.8385 15.6859 18.6909 15.5524L16.8891 13.923V8.59091C16.8857 6.98584 16.244 5.43541 15.0812 4.22271C13.9185 3.01001 12.3122 2.21593 10.5556 1.98545V0.954545C10.5556 0.701384 10.4444 0.458592 10.2464 0.27958C10.0484 0.100568 9.77996 0 9.5 0C9.22004 0 8.95155 0.100568 8.75359 0.27958C8.55563 0.458592 8.44442 0.701384 8.44442 0.954545V1.98545C6.68785 2.21593 5.08154 3.01001 3.91877 4.22271C2.75599 5.43541 2.11433 6.98584 2.11094 8.59091V13.923L0.30906 15.5524C0.16148 15.6859 0.060982 15.856 0.0202708 16.0411C-0.0204403 16.2262 0.000463347 16.4181 0.0803392 16.5925C0.160215 16.7669 0.295477 16.916 0.469024 17.0209C0.642572 17.1258 0.846614 17.1818 1.05536 17.1818ZM3.91281 14.993C4.11079 14.8141 4.22204 14.5713 4.2221 14.3182V8.59091C4.2221 7.3251 4.77816 6.11114 5.76796 5.21608C6.75776 4.32102 8.10021 3.81818 9.5 3.81818C10.8998 3.81818 12.2422 4.32102 13.232 5.21608C14.2218 6.11114 14.7779 7.3251 14.7779 8.59091V14.3182C14.778 14.5713 14.8892 14.8141 15.0872 14.993L15.3965 15.2727H3.60353L3.91281 14.993Z" fill="#3CD3E4"/>
</svg>
