<svg width="20" height="20" viewBox="0 0 20 20" fill="none" xmlns="http://www.w3.org/2000/svg">
<path d="M20 5.23962C20.0007 5.10803 19.9755 4.97758 19.9258 4.85575C19.876 4.73392 19.8027 4.62311 19.71 4.52968L15.47 0.289995C15.3765 0.197321 15.2657 0.124001 15.1439 0.0742399C15.0221 0.024479 14.8916 -0.000744123 14.76 1.6713e-05C14.6284 -0.000744123 14.4979 0.024479 14.3761 0.0742399C14.2542 0.124001 14.1434 0.197321 14.05 0.289995L11.22 3.11978L0.290016 14.049C0.197335 14.1424 0.12401 14.2532 0.0742453 14.375C0.0244808 14.4969 -0.000744178 14.6273 1.67143e-05 14.7589V18.9986C1.67143e-05 19.2638 0.105373 19.5181 0.292909 19.7057C0.480445 19.8932 0.734799 19.9985 1.00001 19.9985H5.24001C5.37993 20.0061 5.5199 19.9843 5.65083 19.9343C5.78175 19.8843 5.90072 19.8074 6.00001 19.7085L16.87 8.77936L19.71 5.99957C19.8013 5.90266 19.8756 5.79112 19.93 5.66959C19.9396 5.58989 19.9396 5.50932 19.93 5.42961C19.9347 5.38307 19.9347 5.33617 19.93 5.28962L20 5.23962ZM4.83001 17.9987H2.00001V15.1689L11.93 5.23962L14.76 8.06941L4.83001 17.9987ZM16.17 6.65952L13.34 3.82973L14.76 2.41984L17.58 5.23962L16.17 6.65952Z" fill="white"/>
</svg>
