<svg width="27" height="25" viewBox="0 0 27 25" fill="none" xmlns="http://www.w3.org/2000/svg">
<g clip-path="url(#clip0_200_89)">
<path d="M14.8059 0.528322C12.6702 0.816408 10.8561 1.08008 10.7665 1.11426C10.6821 1.14356 8.3354 3.28711 5.55103 5.87012C0.878761 10.2012 0.472706 10.5918 0.319776 10.8897C-0.112646 11.7246 -0.107372 12.5791 0.34087 13.3897C0.52544 13.7168 0.84712 14.0293 4.91821 17.7988C7.8397 20.5039 9.38482 21.9053 9.55884 21.9981C10.4922 22.4912 11.4731 22.5303 12.4012 22.1055C12.8284 21.9102 12.8917 21.8565 17.8856 17.2373C21.9356 13.4922 22.9481 12.5303 23.0114 12.374C23.0483 12.2666 23.3383 10.5234 23.6495 8.50196C24.1979 4.91309 24.2084 4.82031 24.1241 4.62012C24.0661 4.46875 23.8077 4.19531 23.1696 3.60938L22.2995 2.80371L21.1815 3.83887L20.0635 4.87403L20.4116 5.21094C20.6647 5.45508 20.7702 5.5918 20.7965 5.72364C20.9389 6.417 20.2323 6.8711 19.6047 6.49512C19.3042 6.31446 17.2211 4.36621 17.1104 4.16113C16.852 3.68262 17.2264 3.1211 17.8065 3.1211C18.1018 3.1211 18.202 3.16992 18.5975 3.52637L18.9245 3.8291L20.0477 2.78906L21.1657 1.75391L20.2956 0.948244C19.8157 0.503908 19.3516 0.1084 19.262 0.0693378C19.167 0.0302753 19.0036 0.00097847 18.8875 0.00097847C18.7768 0.00586128 16.9417 0.245119 14.8059 0.528322ZM14.0465 5.61133C14.2891 5.71875 14.4948 6.00196 14.4948 6.22657C14.4948 6.39746 10.7401 16.8467 10.6188 17.0225C10.3288 17.4277 9.60103 17.4277 9.33208 17.0176C9.10005 16.666 9.02622 16.9297 11.067 11.251C12.4961 7.28614 13.0077 5.91407 13.1131 5.79688C13.3715 5.51368 13.6879 5.4502 14.0465 5.61133ZM7.89771 9.29786C9.09478 9.56153 9.90161 10.6553 9.7065 11.749C9.43755 13.2578 7.71841 14.0586 6.24712 13.3652C5.96763 13.2334 5.49829 12.8184 5.33482 12.5547C4.62817 11.4414 5.09751 10.0059 6.35259 9.45899C6.89575 9.22461 7.33872 9.17579 7.89771 9.29786ZM16.7729 9.27832C17.4795 9.41504 18.1071 9.86914 18.4235 10.4648C19.0194 11.5781 18.529 12.8721 17.3055 13.4141C16.91 13.5898 16.8731 13.5947 16.3141 13.5947C15.7709 13.5947 15.7129 13.585 15.3807 13.4385C14.9008 13.2285 14.6793 13.0625 14.4051 12.7207C14.0782 12.3106 13.9516 11.8857 13.978 11.3047C13.9938 10.8994 14.0202 10.8066 14.1942 10.4795C14.6741 9.57618 15.7446 9.07813 16.7729 9.27832Z" fill="#BBB51F"/>
<path d="M7.00646 10.8017C6.70587 10.9481 6.56876 11.1776 6.6004 11.4853C6.64259 11.9101 6.98009 12.1786 7.4336 12.1396C7.75528 12.1151 7.97677 11.9638 8.08751 11.6903C8.24571 11.3144 8.06114 10.914 7.65509 10.7577C7.41251 10.6601 7.27013 10.6747 7.00646 10.8017Z" fill="#BBB51F"/>
<path d="M16.1031 10.7237C15.4598 10.8848 15.349 11.7296 15.9291 12.0567C16.4143 12.3302 17.0893 11.9835 17.0893 11.461C17.0893 11.1925 16.9785 10.9776 16.7729 10.8409C16.6094 10.7384 16.2824 10.6798 16.1031 10.7237Z" fill="#BBB51F"/>
<path d="M23.0641 0.0693357C22.9744 0.113281 22.5104 0.508789 22.0358 0.948242L21.1656 1.75391L21.7352 2.27637L22.2994 2.80371L23.1432 2.02246C24.2084 1.03613 24.3192 0.850586 24.0924 0.411133C23.9078 0.0546873 23.4332 -0.101563 23.0641 0.0693357Z" fill="#BBB51F"/>
<path d="M25.4107 7.37402C25.4107 7.50098 24.6092 12.5547 24.5617 12.7061C24.4035 13.248 24.4404 13.2139 19.1459 18.126C16.3404 20.7285 13.8988 22.9551 13.7195 23.0723C12.802 23.6875 11.5943 23.9707 10.5186 23.8291C10.2865 23.7998 10.0914 23.7852 10.0809 23.7949C10.0703 23.8047 10.1863 23.9414 10.3393 24.0977C10.682 24.4443 11.1145 24.708 11.5838 24.8594L11.9371 24.9717H18.2916H24.6461L24.9994 24.8594C25.859 24.5811 26.5076 23.9902 26.8451 23.1602L26.9664 22.8721L26.9822 16.1191C26.9928 9.92285 26.9875 9.35645 26.9084 9.21484C26.7713 8.9707 25.4107 7.2959 25.4107 7.37402Z" fill="#BBB51F"/>
</g>
<defs>
<clipPath id="clip0_200_89">
<rect width="27" height="25" rx="5" fill="white"/>
</clipPath>
</defs>
</svg>
