<svg width="16" height="16" viewBox="0 0 16 16" fill="none" xmlns="http://www.w3.org/2000/svg">
<path d="M14.7668 15.7957C14.904 15.9283 15.0878 16.0016 15.2786 16C15.4694 15.9983 15.6519 15.9218 15.7869 15.7869C15.9218 15.6519 15.9983 15.4694 16 15.2786C16.0016 15.0878 15.9283 14.904 15.7957 14.7668L14.7668 15.7957ZM11.6429 6.54911C11.6429 7.90006 11.1062 9.19568 10.1509 10.1509C9.19568 11.1062 7.90006 11.6429 6.54911 11.6429V13.0982C8.28604 13.0982 9.95184 12.4082 11.18 11.18C12.4082 9.95184 13.0982 8.28604 13.0982 6.54911H11.6429ZM6.54911 11.6429C5.19816 11.6429 3.90255 11.1062 2.94728 10.1509C1.99202 9.19568 1.45536 7.90006 1.45536 6.54911H0C0 8.28604 0.689994 9.95184 1.91819 11.18C3.14639 12.4082 4.81218 13.0982 6.54911 13.0982V11.6429ZM1.45536 6.54911C1.45536 5.19816 1.99202 3.90255 2.94728 2.94728C3.90255 1.99202 5.19816 1.45536 6.54911 1.45536V0C4.81218 0 3.14639 0.689994 1.91819 1.91819C0.689994 3.14639 0 4.81218 0 6.54911H1.45536ZM6.54911 1.45536C7.90006 1.45536 9.19568 1.99202 10.1509 2.94728C11.1062 3.90255 11.6429 5.19816 11.6429 6.54911H13.0982C13.0982 4.81218 12.4082 3.14639 11.18 1.91819C9.95184 0.689994 8.28604 0 6.54911 0V1.45536ZM10.5513 10.5513C10.2672 10.8355 10.2672 11.2962 10.5513 11.5803L14.7668 15.7957L15.7957 14.7668L11.5803 10.5513C11.2962 10.2672 10.8355 10.2672 10.5513 10.5513V10.5513Z" fill="black" fill-opacity="0.39"/>
</svg>
