<svg width="21" height="21" viewBox="0 0 21 21" fill="none" xmlns="http://www.w3.org/2000/svg">
<path d="M10.5 0C10.0542 0 9.69231 0.361846 9.69231 0.807692V0.946514C9.69231 1.33259 9.42044 1.67705 9.03921 1.73843C8.85425 1.76832 8.67116 1.80293 8.49023 1.84413C8.11547 1.92974 7.73647 1.71756 7.58947 1.36298L7.53583 1.23678C7.36541 0.824856 6.8932 0.628574 6.48047 0.799805C6.06855 0.970228 5.87226 1.44244 6.04349 1.85517L6.09713 1.98453C6.24575 2.33991 6.1269 2.76063 5.79898 2.96417C5.64067 3.06271 5.48622 3.16594 5.33519 3.27336C5.0218 3.49709 4.5883 3.44617 4.31611 3.17398L4.2183 3.07617C3.90249 2.76036 3.39117 2.76036 3.07617 3.07617C2.76117 3.39198 2.76117 3.9033 3.07617 4.2183L3.17398 4.31611C3.44617 4.5883 3.49709 5.02099 3.27336 5.33519C3.16594 5.48622 3.06271 5.64067 2.96417 5.79898C2.76063 6.1269 2.33914 6.24652 1.98295 6.09871L1.85517 6.04507C1.44325 5.87465 0.969458 6.07012 0.798227 6.48205C0.627804 6.89397 0.823278 7.36618 1.2352 7.53741L1.3614 7.58947C1.71598 7.73647 1.92974 8.11547 1.84413 8.49023C1.80293 8.67116 1.76674 8.85425 1.73685 9.03921C1.67628 9.41964 1.33259 9.69231 0.946514 9.69231H0.807692C0.361846 9.69231 0 10.0542 0 10.5C0 10.9458 0.361846 11.3077 0.807692 11.3077H0.946514C1.33259 11.3077 1.67705 11.5796 1.73843 11.9608C1.76832 12.1457 1.80293 12.3288 1.84413 12.5098C1.92974 12.8845 1.71756 13.2635 1.36298 13.4105L1.23678 13.4642C0.824856 13.6346 0.628574 14.1068 0.799805 14.5195C0.970228 14.9315 1.44244 15.1277 1.85517 14.9565L1.98453 14.9029C2.34072 14.7551 2.7614 14.8739 2.96575 15.201C3.06428 15.3593 3.16671 15.5145 3.27494 15.6664C3.49867 15.9798 3.44775 16.4133 3.17556 16.6855L3.07617 16.7833C2.76036 17.0991 2.76036 17.6104 3.07617 17.9254C3.39198 18.2404 3.9033 18.2412 4.2183 17.9254L4.31768 17.8276C4.58988 17.5554 5.0218 17.5029 5.33519 17.7266C5.48703 17.8349 5.64225 17.9389 5.80056 18.0374C6.12767 18.2409 6.24809 18.6624 6.10029 19.0186L6.04665 19.1464C5.87623 19.5583 6.0717 20.0321 6.48362 20.2034C6.89555 20.3738 7.36776 20.1783 7.53899 19.7664L7.59105 19.6402C7.73805 19.2856 8.11704 19.0718 8.49181 19.1575C8.67274 19.1986 8.85583 19.2348 9.04079 19.2647C9.4196 19.3237 9.69231 19.6674 9.69231 20.0535V20.1923C9.69231 20.6382 10.0542 21 10.5 21C10.9458 21 11.3077 20.6382 11.3077 20.1923V20.0535C11.3077 19.6674 11.5796 19.323 11.9608 19.2616C12.1457 19.2317 12.3288 19.1971 12.5098 19.1559C12.8845 19.0703 13.2635 19.2824 13.4105 19.637L13.4642 19.7632C13.6346 20.1751 14.1068 20.3714 14.5195 20.2002C14.9315 20.0298 15.1277 19.5576 14.9565 19.1448L14.9029 19.0155C14.7551 18.6593 14.8739 18.2386 15.201 18.0343C15.3593 17.9357 15.5145 17.8333 15.6664 17.7251C15.9798 17.5013 16.4133 17.5523 16.6855 17.8244L16.7833 17.9238C17.0991 18.2396 17.6104 18.2396 17.9254 17.9238C18.2404 17.608 18.2412 17.0967 17.9254 16.7817L17.8276 16.6823C17.5554 16.4101 17.5029 15.9782 17.7266 15.6648C17.8349 15.513 17.9389 15.3578 18.0374 15.1994C18.2409 14.8723 18.6624 14.7519 19.0186 14.8997L19.1464 14.9534C19.5583 15.1238 20.0321 14.9283 20.2034 14.5164C20.3738 14.1045 20.1783 13.6322 19.7664 13.461L19.6402 13.409C19.2856 13.262 19.0718 12.883 19.1575 12.5082C19.1986 12.3273 19.2348 12.1442 19.2647 11.9592C19.3237 11.5804 19.6674 11.3077 20.0535 11.3077H20.1923C20.6382 11.3077 21 10.9458 21 10.5C21 10.0542 20.6382 9.69231 20.1923 9.69231H20.0535C19.6674 9.69231 19.323 9.42044 19.2616 9.03921C19.2317 8.85425 19.1971 8.67116 19.1559 8.49023C19.0703 8.11547 19.2824 7.73647 19.637 7.58947L19.7632 7.53583C20.1751 7.36541 20.3714 6.8932 20.2002 6.48047C20.0298 6.06855 19.5576 5.87226 19.1448 6.04349L19.0155 6.09713C18.6593 6.24494 18.2386 6.12609 18.0343 5.79898C17.9357 5.64067 17.8333 5.48546 17.7251 5.33361C17.5013 5.02022 17.5523 4.58672 17.8244 4.31453L17.9238 4.21672C18.2396 3.90091 18.2396 3.38959 17.9238 3.07459C17.608 2.75879 17.0967 2.75879 16.7817 3.07459L16.6839 3.17398C16.4117 3.44617 15.9782 3.49867 15.6648 3.27494C15.513 3.16671 15.3578 3.06271 15.1994 2.96417C14.8723 2.76063 14.7535 2.33914 14.9013 1.98295L14.9549 1.85517C15.1254 1.44325 14.9299 0.969458 14.518 0.798227C14.106 0.627804 13.6338 0.823278 13.4626 1.2352L13.409 1.3614C13.262 1.71598 12.883 1.92974 12.5082 1.84413C12.3273 1.80293 12.1442 1.76674 11.9592 1.73685C11.5796 1.67628 11.3077 1.33259 11.3077 0.946514V0.807692C11.3077 0.361846 10.9458 0 10.5 0ZM10.5 4.03846C13.7943 4.03846 16.5081 6.50586 16.9063 9.69231H11.8961C11.7546 9.44716 11.5511 9.2435 11.3061 9.10175C11.061 8.95999 10.7831 8.88512 10.5 8.88461C10.4995 8.88461 10.4989 8.88461 10.4984 8.88461L7.99331 4.54327C8.76427 4.21836 9.6109 4.03846 10.5 4.03846ZM6.59878 5.35727L9.10231 9.69231C8.96009 9.93775 8.885 10.2163 8.88461 10.5C8.88556 10.7826 8.96062 11.06 9.10231 11.3045L6.59721 15.6412C5.04519 14.4609 4.03846 12.6001 4.03846 10.5C4.03846 8.39915 5.04576 6.53743 6.59878 5.35727ZM11.8977 11.3077H16.9063C16.5081 14.4941 13.7943 16.9615 10.5 16.9615C9.6109 16.9615 8.76427 16.7816 7.99331 16.4567L10.4984 12.1154C10.4989 12.1154 10.4995 12.1154 10.5 12.1154C10.7833 12.1152 11.0616 12.0404 11.307 11.8986C11.5523 11.7569 11.756 11.5531 11.8977 11.3077Z" fill="#3CD3E4"/>
</svg>
