<svg width="15" height="15" viewBox="0 0 15 15" fill="none" xmlns="http://www.w3.org/2000/svg">
<path d="M7.28277 1.14728C7.30178 1.10337 7.33248 1.06613 7.37119 1.04001C7.4099 1.01389 7.45498 1 7.50103 1C7.54708 1 7.59216 1.01389 7.63087 1.04001C7.66957 1.06613 7.70027 1.10337 7.71929 1.14728L9.44324 5.11862C9.46034 5.1579 9.48684 5.19189 9.52017 5.21731C9.55349 5.24273 9.59252 5.25872 9.63348 5.26373L13.7878 5.78012C13.9972 5.80559 14.0753 6.08116 13.9131 6.22241L10.8088 8.91628C10.7753 8.94549 10.7501 8.98371 10.7358 9.02682C10.7215 9.06994 10.7187 9.11632 10.7277 9.16097L11.6177 13.6981C11.6273 13.7462 11.6231 13.7961 11.6058 13.8418C11.5885 13.8874 11.5587 13.9267 11.5202 13.9549C11.4818 13.983 11.4363 13.9986 11.3894 13.9999C11.3425 14.0012 11.2962 13.988 11.2564 13.9621L7.62638 11.6055C7.58842 11.5808 7.54461 11.5678 7.49992 11.5678C7.45523 11.5678 7.41143 11.5808 7.37346 11.6055L3.7449 13.9621C3.70508 13.988 3.65885 14.0012 3.61195 13.9999C3.56505 13.9986 3.51954 13.983 3.48107 13.9549C3.4426 13.9267 3.41286 13.8874 3.39553 13.8418C3.3782 13.7961 3.37405 13.7462 3.3836 13.6981L4.27359 9.16097C4.28239 9.11637 4.27941 9.0701 4.265 9.02713C4.25058 8.98416 4.22525 8.94611 4.19175 8.91706L1.08745 6.22318C1.05107 6.19188 1.02432 6.15004 1.01052 6.10291C0.99672 6.05578 0.996493 6.00543 1.00987 5.95817C1.02324 5.9109 1.04962 5.86881 1.08571 5.83714C1.1218 5.80548 1.16601 5.78564 1.2128 5.78012L5.3671 5.26373C5.40806 5.25872 5.44709 5.24273 5.48041 5.21731C5.51374 5.19189 5.54024 5.1579 5.55734 5.11862L7.28277 1.14728Z" fill="#13274A" stroke="#13274A" stroke-width="1.626" stroke-linejoin="round"/>
</svg>
