<svg width="73" height="73" viewBox="0 0 73 73" fill="none" xmlns="http://www.w3.org/2000/svg">
<rect width="73" height="73" fill="white" fill-opacity="0.87"/>
<path d="M19.0311 64.7662C24.7461 66.1948 30.6214 66.9093 36.5 66.9093C42.3768 66.9078 48.2551 66.1948 53.9674 64.7662C59.2976 63.4354 63.4355 59.2976 64.7662 53.9689C67.6239 42.5404 67.6239 30.4598 64.7662 19.0329C63.4355 13.7027 59.2976 9.56478 53.9689 8.23405C53.9674 8.23405 53.9704 8.23405 53.9689 8.23405C42.542 5.37641 30.4568 5.37641 19.0326 8.23405C13.7024 9.56448 9.56454 13.7024 8.23381 19.0311C5.37616 30.4595 5.37616 42.5401 8.23381 53.967C9.56454 59.2976 13.7024 63.4354 19.0311 64.7662ZM14.1362 20.506C14.9218 17.3618 17.3619 14.9218 20.5075 14.1361C25.7383 12.8276 31.1193 12.1739 36.5 12.1739C41.8807 12.1739 47.2617 12.8273 52.4925 14.1358C55.6367 14.9215 58.0782 17.3615 58.8639 20.5072C61.4794 30.969 61.4794 42.0306 58.8639 52.4936C58.0782 55.6378 55.6382 58.0778 52.4925 58.8635C42.0307 61.4806 30.9706 61.4806 20.506 58.8635C17.3619 58.0778 14.9218 55.6378 14.1362 52.4921C11.5206 42.0309 11.5206 30.969 14.1362 20.506Z" fill="#3CD3E4"/>
<path d="M45.6251 39.5415H27.3751C26.187 39.5415 25.1087 40.2335 24.6111 41.3118C24.115 42.3916 24.2933 43.6615 25.0655 44.5627L30.2802 50.6461C30.8815 51.3472 31.7341 51.7082 32.5909 51.7082C33.292 51.7082 33.9959 51.4676 34.5692 50.9761C35.8449 49.8829 35.9921 47.9627 34.8989 46.6867L33.9886 45.6249H45.6251C47.3047 45.6249 48.6667 44.2628 48.6667 42.5832C48.6667 40.9036 47.3047 39.5415 45.6251 39.5415ZM27.3751 33.4582H45.6251C46.8131 33.4582 47.8914 32.7662 48.389 31.688C48.8851 30.6082 48.7069 29.3383 47.9346 28.437L42.72 22.3537C41.6253 21.078 39.7036 20.9278 38.4306 22.024C37.1549 23.1171 37.0077 25.0374 38.1009 26.3133L39.0116 27.3749H27.3751C25.6955 27.3749 24.3334 28.7369 24.3334 30.4165C24.3334 32.0961 25.6955 33.4582 27.3751 33.4582Z" fill="#3CD3E4"/>
</svg>
